# xmcd CD database file
#
# Track frame offsets:
#	150
#	3637
#	7537
#	15177
#	18780
#	25475
#	35092
#	38897
#	46192
#	49375
#	60270
#	63687
#	74212
#	77825
#	83205
#	91260
#	100537
#	109702
#	120142
#	126482
#	135047
#	143075
#	151925
#	165252
#	174540
#	187555
#	196475
#	207945
#	215682
#	218130
#	227607
#	236097
#	238647
#	246457
#	256162
#	260167
#	266645
#	269875
#	274195
#	275737
#	281622
#	286145
#	300375
#	308345
#
# Disc length: 4297 seconds
#
# Revision: 2
# Processed by: cddbd v1.5.2PL0 Copyright (c) Steve Scherf et al.
# Submitted via: CDex 1.70beta3
#
DISCID=6410c72c
DTITLE=Various Artist - 魔剣X オリジナルサウンドトラックス<完全収録盤>
DYEAR=1999
DGENRE=Soundtrack
TTITLE0=イマージュ
TTITLE1=タイトルバック
TTITLE2=オプション
TTITLE3=アンドレイ侵入
TTITLE4=ワールドマップ
TTITLE5=研究所
TTITLE6=研究所戦闘後
TTITLE7=研究所（イベント）
TTITLE8=ブレインジャック
TTITLE9=ケイ
TTITLE10=飛空艇に突入してくる敵部隊
TTITLE11=飛空艇
TTITLE12=パワーアップ
TTITLE13=研究員とコウの会話
TTITLE14=香港
TTITLE15=インド
TTITLE16=モスクワ
TTITLE17=Mist
TTITLE18=Risky
TTITLE19=イスタンブール
TTITLE20=ウイーン
TTITLE21=トランシルバニア
TTITLE22=アムステルダム
TTITLE23=シシリー
TTITLE24=リスボン
TTITLE25=研究員による状況説明
TTITLE26=崑崙
TTITLE27=ブラジル
TTITLE28=殺害されたギネス博士
TTITLE29=ワシントン
TTITLE30=紫禁城
TTITLE31=異空間
TTITLE32=ボス
TTITLE33=ラスボス
TTITLE34=共同統治
TTITLE35=支配者
TTITLE36=秩序
TTITLE37=休戦
TTITLE38=イマージュアウト
TTITLE39=喪失
TTITLE40=救済
TTITLE41=魔剣X 愛のテーマ（スタッフロール1）
TTITLE42=封印
TTITLE43=魔剣X 溺愛のテーマ（スタッフロール2）
EXTD=YEAR: 1999
EXTT0=
EXTT1=
EXTT2=
EXTT3=
EXTT4=
EXTT5=
EXTT6=
EXTT7=
EXTT8=
EXTT9=
EXTT10=
EXTT11=
EXTT12=
EXTT13=
EXTT14=
EXTT15=
EXTT16=
EXTT17=
EXTT18=
EXTT19=
EXTT20=
EXTT21=
EXTT22=
EXTT23=
EXTT24=
EXTT25=
EXTT26=
EXTT27=
EXTT28=
EXTT29=
EXTT30=
EXTT31=
EXTT32=
EXTT33=
EXTT34=
EXTT35=
EXTT36=
EXTT37=
EXTT38=
EXTT39=
EXTT40=
EXTT41=
EXTT42=
EXTT43=
PLAYORDER=
